<?xml version="1.0" encoding="UTF-8" standalone="no"?>
<!-- Generator: Adobe Illustrator 19.0.0, SVG Export Plug-In . SVG Version: 6.00 Build 0)  -->

<svg
   version="1.1"
   id="Layer_1"
   x="0px"
   y="0px"
   viewBox="0 0 2021.5871 1985.0731"
   xml:space="preserve"
   inkscape:version="1.4.3 (0d15f75, 2025-12-25)"
   sodipodi:docname="jop.svg"
   width="2021.587"
   height="1985.073"
   inkscape:export-filename="gson.png"
   inkscape:export-xdpi="90"
   inkscape:export-ydpi="90"
   xmlns:inkscape="http://www.inkscape.org/namespaces/inkscape"
   xmlns:sodipodi="http://sodipodi.sourceforge.net/DTD/sodipodi-0.dtd"
   xmlns:xlink="http://www.w3.org/1999/xlink"
   xmlns="http://www.w3.org/2000/svg"
   xmlns:svg="http://www.w3.org/2000/svg"
   xmlns:rdf="http://www.w3.org/1999/02/22-rdf-syntax-ns#"
   xmlns:cc="http://creativecommons.org/ns#"
   xmlns:dc="http://purl.org/dc/elements/1.1/"><metadata
   id="metadata43"><rdf:RDF><cc:Work
       rdf:about=""><dc:format>image/svg+xml</dc:format><dc:type
         rdf:resource="http://purl.org/dc/dcmitype/StillImage" /></cc:Work></rdf:RDF></metadata><defs
   id="defs41"><linearGradient
     id="linearGradient8385"><stop
       offset="0"
       id="stop1" /><stop
       stop-color="#fff"
       offset="1"
       id="stop2" /></linearGradient><linearGradient
     id="linearGradient3002"
     x1="-553.27002"
     x2="-666.12"
     y1="525.90997"
     y2="413.04999"
     gradientTransform="matrix(0.99884,0,0,0.9987,689.01,-388.84)"
     gradientUnits="userSpaceOnUse"
     xlink:href="#linearGradient8385" /><linearGradient
     id="linearGradient3005"
     x1="-666.12"
     x2="-553.27002"
     y1="413.04001"
     y2="525.90997"
     gradientTransform="matrix(0.99884,0,0,0.9987,689.01,-388.84)"
     gradientUnits="userSpaceOnUse"
     xlink:href="#linearGradient8385" /><linearGradient
     id="lg1"
     gradientTransform="scale(0.90905134,1.1000479)"
     x1="30.55933"
     y1="-0.00011750961"
     x2="176.00766"
     y2="-0.00011750961"
     gradientUnits="userSpaceOnUse"><stop
       stop-color="#e3f2fd"
       offset="0"
       id="stop1-0" /><stop
       stop-color="#90caf9"
       offset="0.35"
       id="stop2-9" /><stop
       stop-color="#42a5f5"
       offset="0.65"
       id="stop3" /><stop
       stop-color="#1976d2"
       offset="1"
       id="stop4" /></linearGradient><linearGradient
     gradientUnits="userSpaceOnUse"
     gradientTransform="matrix(0.99884,0,0,0.9987,689.01,-388.84)"
     y2="413.04999"
     y1="525.90997"
     x2="-666.12"
     x1="-553.27002"
     id="lg2"><stop
       stop-color="#e0f7fa"
       offset="0"
       id="stop5" /><stop
       stop-color="#80deea"
       offset="0.4"
       id="stop6" /><stop
       stop-color="#26c6da"
       offset="0.7"
       id="stop7" /><stop
       stop-color="#00838f"
       offset="1"
       id="stop8" /></linearGradient></defs><sodipodi:namedview
   pagecolor="#ffffff"
   bordercolor="#666666"
   borderopacity="1"
   objecttolerance="10"
   gridtolerance="10"
   guidetolerance="10"
   inkscape:pageopacity="0"
   inkscape:pageshadow="2"
   inkscape:window-width="2588"
   inkscape:window-height="2104"
   id="namedview39"
   showgrid="false"
   inkscape:zoom="0.32593204"
   inkscape:cx="182.55339"
   inkscape:cy="1075.3776"
   inkscape:window-x="1223"
   inkscape:window-y="8"
   inkscape:window-maximized="0"
   inkscape:current-layer="Layer_1"
   fit-margin-top="50"
   fit-margin-left="600"
   fit-margin-right="600"
   fit-margin-bottom="50"
   inkscape:showpageshadow="2"
   inkscape:pagecheckerboard="0"
   inkscape:deskcolor="#d1d1d1" /><g
   id="g9"
   transform="translate(-1775.289,3076.8445)" /><g
   id="g11"
   transform="translate(-1775.289,3076.8445)" /><g
   id="g13"
   transform="translate(-1775.289,3076.8445)" /><g
   id="g15"
   transform="translate(-1775.289,3076.8445)" /><g
   id="g17"
   transform="translate(-1775.289,3076.8445)" /><g
   id="g19"
   transform="translate(-1775.289,3076.8445)" /><g
   id="g21"
   transform="translate(-1775.289,3076.8445)" /><g
   id="g23"
   transform="translate(-1775.289,3076.8445)" /><g
   id="g25"
   transform="translate(-1775.289,3076.8445)" /><g
   id="g27"
   transform="translate(-1775.289,3076.8445)" /><g
   id="g29"
   transform="translate(-1775.289,3076.8445)" /><g
   id="g31"
   transform="translate(-1775.289,3076.8445)" /><g
   id="g33"
   transform="translate(-1775.289,3076.8445)" /><g
   id="g35"
   transform="translate(-1775.289,3076.8445)" /><g
   id="g37"
   transform="translate(-1775.289,3076.8445)" /><text
   xml:space="preserve"
   style="font-style:normal;font-weight:normal;font-size:11.5678px;line-height:0%;font-family:sans-serif;letter-spacing:0px;word-spacing:0px;fill:#1d7fde;fill-opacity:1;stroke:none;stroke-width:0.963997px;stroke-linecap:butt;stroke-linejoin:miter;stroke-opacity:1"
   x="95.542404"
   y="1884.3303"
   id="text4189"><tspan
     sodipodi:role="line"
     id="tspan4191"
     x="95.542404"
     y="1884.3303"
     style="font-style:normal;font-variant:normal;font-weight:normal;font-stretch:normal;font-size:602.491px;line-height:1.25;font-family:Birdman;-inkscape-font-specification:Birdman;fill:#1d7fde;fill-opacity:1;stroke-width:0.963997px">GSON</tspan></text>
<g
   fill-rule="evenodd"
   id="g9-4"
   transform="matrix(8.0566801,0,0,8.0566801,366.25914,100.00104)"><path
     fill="url(#lg2)"
     d="m 79.865,119.1 c 35.398,48.255 70.04,-13.469 69.989,-50.587 C 149.7938,24.627 105.313,0.099 79.836,0.099 38.944,0.099 0,33.895 0,80.135 0,131.531 44.64,160 79.836,160 71.8715,158.8532 45.33,153.166 44.973,92.033 44.73313,50.686 58.461,34.167 79.778,41.434 c 0.47743,0.17707 23.514,9.2645 23.514,38.951 0,29.56 -23.427,38.715 -23.427,38.715 z"
     id="path8"
     style="fill:url(#lg2)" /><path
     fill="url(#lg1)"
     d="M 79.823,41.401 C 56.433,33.3391 27.78,52.617 27.78,91.23 27.78,154.278 74.501,160 80.164,160 121.056,160 160,126.204 160,79.964 160,28.568 115.36,0.099 80.164,0.099 c 9.7481,-1.35 52.541,10.55 52.541,69.037 0,38.141 -31.953,58.905 -52.735,50.033 -0.47743,-0.17707 -23.514,-9.2645 -23.514,-38.951 0,-29.56 23.367,-38.818 23.367,-38.818 z"
     id="path9"
     style="fill:url(#lg1)" /></g></svg>
